HIERARCHY
ROOT Hips
{
	OFFSET 0.000000 71.427986 0.000000
	CHANNELS 6 Xposition Yposition Zposition Xrotation Yrotation Zrotation
	JOINT Pelvis
	{
		OFFSET 0.000000 0.000000 0.000000
		CHANNELS 3 Xrotation Yrotation Zrotation
		JOINT LeftUpLeg
		{
			OFFSET 6.797100 -2.508499 -1.318700
			CHANNELS 3 Xrotation Yrotation Zrotation
			JOINT LeftLeg
			{
				OFFSET 0.069008 -29.241863 0.690200
				CHANNELS 3 Xrotation Yrotation Zrotation
				JOINT LeftFoot
				{
					OFFSET -0.069008 -29.568123 -0.266800
					CHANNELS 3 Xrotation Yrotation Zrotation
					JOINT LeftToeBase
					{
						OFFSET 3.145500 -8.631000 16.059900
						CHANNELS 3 Xrotation Yrotation Zrotation
						End Site
						{
							OFFSET 0.000000 18.501587 0.000000
						}
					}
				}
			}
			JOINT Left_ShortSleeve
			{
				OFFSET 0.265923 -10.480953 1.153800
				CHANNELS 3 Xrotation Yrotation Zrotation
				End Site
				{
					OFFSET 1.725763 19.823879 0.000000
				}
			}
		}
		JOINT RightUpLeg
		{
			OFFSET -6.797100 -2.508499 -1.318700
			CHANNELS 3 Xrotation Yrotation Zrotation
			JOINT RightLeg
			{
				OFFSET -0.082453 -29.241932 0.688000
				CHANNELS 3 Xrotation Yrotation Zrotation
				JOINT RightFoot
				{
					OFFSET 0.082453 -29.568058 -0.264600
					CHANNELS 3 Xrotation Yrotation Zrotation
					JOINT RightToeBase
					{
						OFFSET -3.115300 -8.682800 16.113400
						CHANNELS 3 Xrotation Yrotation Zrotation
						End Site
						{
							OFFSET 0.000000 18.567114 0.000000
						}
					}
				}
			}
			JOINT Right_ShortSleeve
			{
				OFFSET -0.265923 -10.480953 1.153800
				CHANNELS 3 Xrotation Yrotation Zrotation
				End Site
				{
					OFFSET -1.725766 19.823910 0.000000
				}
			}
		}
	}
	JOINT Spine
	{
		OFFSET 0.000000 13.368103 0.470500
		CHANNELS 3 Xrotation Yrotation Zrotation
		JOINT Spine1
		{
			OFFSET 0.147000 13.837402 0.538800
			CHANNELS 3 Xrotation Yrotation Zrotation
			JOINT Spine2
			{
				OFFSET 0.168000 16.242897 -1.435500
				CHANNELS 3 Xrotation Yrotation Zrotation
				JOINT Neck
				{
					OFFSET 0.217200 18.631500 -1.679100
					CHANNELS 3 Xrotation Yrotation Zrotation
					JOINT Head
					{
						OFFSET 0.000000 6.599396 1.385900
						CHANNELS 3 Xrotation Yrotation Zrotation
						JOINT Hat
						{
							OFFSET -0.532200 27.220596 -10.096100
							CHANNELS 3 Xrotation Yrotation Zrotation
							End Site
							{
								OFFSET 0.000000 22.029861 0.000000
							}
						}
						JOINT HairD
						{
							OFFSET -10.777400 17.437393 -1.325900
							CHANNELS 3 Xrotation Yrotation Zrotation
							JOINT HairD1
							{
								OFFSET -3.290299 -11.051193 1.062200
								CHANNELS 3 Xrotation Yrotation Zrotation
								End Site
								{
									OFFSET 0.000000 11.579437 0.000000
								}
							}
						}
						JOINT HairB
						{
							OFFSET -10.777400 17.437393 1.467900
							CHANNELS 3 Xrotation Yrotation Zrotation
							JOINT HairB1
							{
								OFFSET -1.561200 -12.956299 3.590200
								CHANNELS 3 Xrotation Yrotation Zrotation
								End Site
								{
									OFFSET 0.000000 13.534866 0.000000
								}
							}
						}
						JOINT HairA
						{
							OFFSET 9.713100 17.437393 1.467900
							CHANNELS 3 Xrotation Yrotation Zrotation
							JOINT HairA1
							{
								OFFSET 1.561200 -12.956299 3.590200
								CHANNELS 3 Xrotation Yrotation Zrotation
								End Site
								{
									OFFSET 0.000000 13.534866 0.000000
								}
							}
						}
						JOINT HairC
						{
							OFFSET 9.713100 17.437393 -1.325900
							CHANNELS 3 Xrotation Yrotation Zrotation
							JOINT HairC1
							{
								OFFSET 3.290300 -11.051193 1.062200
								CHANNELS 3 Xrotation Yrotation Zrotation
								End Site
								{
									OFFSET 0.000000 11.579437 0.000000
								}
							}
						}
					}
				}
				JOINT LeftShoulder
				{
					OFFSET 5.101800 15.108002 -2.763700
					CHANNELS 3 Xrotation Yrotation Zrotation
					JOINT LeftArm
					{
						OFFSET 9.825497 2.506317 -1.597400
						CHANNELS 3 Xrotation Yrotation Zrotation
						JOINT LeftForeArm
						{
							OFFSET 21.966244 0.000000 0.000000
							CHANNELS 3 Xrotation Yrotation Zrotation
							JOINT LeftHand
							{
								OFFSET 33.879036 0.000000 0.000000
								CHANNELS 3 Xrotation Yrotation Zrotation
								JOINT LeftHandThumb1
								{
									OFFSET 6.715286 -2.359680 3.363841
									CHANNELS 3 Xrotation Yrotation Zrotation
									JOINT LeftHandThumb2
									{
										OFFSET 2.507072 -1.447464 1.447461
										CHANNELS 3 Xrotation Yrotation Zrotation
										JOINT LeftHandThumb3
										{
											OFFSET 2.898338 -1.673355 1.673357
											CHANNELS 3 Xrotation Yrotation Zrotation
											End Site
											{
												OFFSET -0.295959 3.727692 -0.131651
											}
										}
									}
								}
								JOINT LeftHandIndex1
								{
									OFFSET 14.190811 -0.254547 3.840278
									CHANNELS 3 Xrotation Yrotation Zrotation
									JOINT LeftHandIndex2
									{
										OFFSET 3.551727 0.000000 -0.000000
										CHANNELS 3 Xrotation Yrotation Zrotation
										JOINT LeftHandIndex3
										{
											OFFSET 2.894196 0.000000 0.000000
											CHANNELS 3 Xrotation Yrotation Zrotation
											End Site
											{
												OFFSET -1.000603 2.690872 0.366626
											}
										}
									}
								}
								JOINT LeftHandMiddle1
								{
									OFFSET 13.776489 0.000000 0.000000
									CHANNELS 3 Xrotation Yrotation Zrotation
									JOINT LeftHandMiddle2
									{
										OFFSET 3.438232 0.000000 0.000000
										CHANNELS 3 Xrotation Yrotation Zrotation
										JOINT LeftHandMiddle3
										{
											OFFSET 3.691551 0.000000 0.000000
											CHANNELS 3 Xrotation Yrotation Zrotation
											End Site
											{
												OFFSET -1.082298 3.499527 0.457670
											}
										}
									}
								}
								JOINT LeftHandRing1
								{
									OFFSET 13.966164 -0.268127 -3.067488
									CHANNELS 3 Xrotation Yrotation Zrotation
									JOINT LeftHandRing2
									{
										OFFSET 3.162567 0.000000 0.000000
										CHANNELS 3 Xrotation Yrotation Zrotation
										JOINT LeftHandRing3
										{
											OFFSET 3.324348 0.000000 0.000000
											CHANNELS 3 Xrotation Yrotation Zrotation
											End Site
											{
												OFFSET -0.861900 3.184998 0.405154
											}
										}
									}
								}
								JOINT LeftHandPinky1
								{
									OFFSET 13.131393 -0.168503 -5.746925
									CHANNELS 3 Xrotation Yrotation Zrotation
									JOINT LeftHandPinky2
									{
										OFFSET 2.849182 0.000000 0.000000
										CHANNELS 3 Xrotation Yrotation Zrotation
										JOINT LeftHandPinky3
										{
											OFFSET 2.805038 0.000000 0.000000
											CHANNELS 3 Xrotation Yrotation Zrotation
											End Site
											{
												OFFSET -0.882500 2.642609 0.325652
											}
										}
									}
								}
							}
							JOINT Left_Sleeve
							{
								OFFSET 6.592125 -0.646545 0.805568
								CHANNELS 3 Xrotation Yrotation Zrotation
								End Site
								{
									OFFSET -0.000179 20.275787 -0.000000
								}
							}
						}
					}
				}
				JOINT RightShoulder
				{
					OFFSET -5.731700 15.108002 -2.763700
					CHANNELS 3 Xrotation Yrotation Zrotation
					JOINT RightArm
					{
						OFFSET -9.825497 2.506317 -1.597400
						CHANNELS 3 Xrotation Yrotation Zrotation
						JOINT RightForeArm
						{
							OFFSET -21.966242 0.000000 0.000000
							CHANNELS 3 Xrotation Yrotation Zrotation
							JOINT RightHand
							{
								OFFSET -33.879032 0.000000 0.000000
								CHANNELS 3 Xrotation Yrotation Zrotation
								JOINT RightHandThumb1
								{
									OFFSET -6.715286 -2.359680 3.363841
									CHANNELS 3 Xrotation Yrotation Zrotation
									JOINT RightHandThumb2
									{
										OFFSET -2.507072 -1.447464 1.447461
										CHANNELS 3 Xrotation Yrotation Zrotation
										JOINT RightHandThumb3
										{
											OFFSET -2.898338 -1.673355 1.673357
											CHANNELS 3 Xrotation Yrotation Zrotation
											End Site
											{
												OFFSET 0.295959 3.727692 -0.131651
											}
										}
									}
								}
								JOINT RightHandIndex1
								{
									OFFSET -14.190811 -0.254547 3.840278
									CHANNELS 3 Xrotation Yrotation Zrotation
									JOINT RightHandIndex2
									{
										OFFSET -3.551727 0.000000 -0.000000
										CHANNELS 3 Xrotation Yrotation Zrotation
										JOINT RightHandIndex3
										{
											OFFSET -2.894196 0.000000 0.000000
											CHANNELS 3 Xrotation Yrotation Zrotation
											End Site
											{
												OFFSET 1.000603 2.690872 0.366626
											}
										}
									}
								}
								JOINT RightHandMiddle1
								{
									OFFSET -13.776489 0.000000 0.000000
									CHANNELS 3 Xrotation Yrotation Zrotation
									JOINT RightHandMiddle2
									{
										OFFSET -3.438232 0.000000 0.000000
										CHANNELS 3 Xrotation Yrotation Zrotation
										JOINT RightHandMiddle3
										{
											OFFSET -3.691551 0.000000 0.000000
											CHANNELS 3 Xrotation Yrotation Zrotation
											End Site
											{
												OFFSET 1.082298 3.499527 0.457670
											}
										}
									}
								}
								JOINT RightHandRing1
								{
									OFFSET -13.966164 -0.268127 -3.067488
									CHANNELS 3 Xrotation Yrotation Zrotation
									JOINT RightHandRing2
									{
										OFFSET -3.162567 0.000000 0.000000
										CHANNELS 3 Xrotation Yrotation Zrotation
										JOINT RightHandRing3
										{
											OFFSET -3.324348 0.000000 0.000000
											CHANNELS 3 Xrotation Yrotation Zrotation
											End Site
											{
												OFFSET 0.861900 3.184998 0.405154
											}
										}
									}
								}
								JOINT RightHandPinky1
								{
									OFFSET -13.131393 -0.168503 -5.746925
									CHANNELS 3 Xrotation Yrotation Zrotation
									JOINT RightHandPinky2
									{
										OFFSET -2.849182 0.000000 0.000000
										CHANNELS 3 Xrotation Yrotation Zrotation
										JOINT RightHandPinky3
										{
											OFFSET -2.805038 0.000000 0.000000
											CHANNELS 3 Xrotation Yrotation Zrotation
											End Site
											{
												OFFSET 0.882500 2.642609 0.325652
											}
										}
									}
								}
							}
							JOINT Right_Sleeve
							{
								OFFSET -6.592125 -0.646545 0.805568
								CHANNELS 3 Xrotation Yrotation Zrotation
								End Site
								{
									OFFSET 0.000179 20.275787 -0.000000
								}
							}
						}
					}
				}
				JOINT Bind_Right_JacketString
				{
					OFFSET -3.534800 11.969597 7.200700
					CHANNELS 3 Xrotation Yrotation Zrotation
					JOINT Bind_Right_JacketString1
					{
						OFFSET -0.319900 -6.102600 2.794100
						CHANNELS 3 Xrotation Yrotation Zrotation
						End Site
						{
							OFFSET 0.000000 6.719452 0.000000
						}
					}
				}
				JOINT Bind_Left_JacketString
				{
					OFFSET 2.904800 11.969597 7.200700
					CHANNELS 3 Xrotation Yrotation Zrotation
					JOINT Bind_Left_JacketString1
					{
						OFFSET 0.364800 -5.904503 3.186800
						CHANNELS 3 Xrotation Yrotation Zrotation
						End Site
						{
							OFFSET 0.000000 6.719513 0.000000
						}
					}
				}
				JOINT HairE
				{
					OFFSET 5.915200 17.612701 -11.592200
					CHANNELS 3 Xrotation Yrotation Zrotation
					JOINT HairE1
					{
						OFFSET 0.289200 -7.171898 -1.284500
						CHANNELS 3 Xrotation Yrotation Zrotation
						End Site
						{
							OFFSET 0.000000 7.291756 0.000000
						}
					}
				}
				JOINT HairF
				{
					OFFSET -0.864800 17.612701 -11.592200
					CHANNELS 3 Xrotation Yrotation Zrotation
					JOINT HairF1
					{
						OFFSET 0.000000 -14.087097 -2.127501
						CHANNELS 3 Xrotation Yrotation Zrotation
						End Site
						{
							OFFSET 0.000000 14.246841 0.000000
						}
					}
				}
				JOINT HairG
				{
					OFFSET -8.087700 17.612701 -11.592200
					CHANNELS 3 Xrotation Yrotation Zrotation
					JOINT HairG1
					{
						OFFSET -0.293600 -6.081398 -0.910100
						CHANNELS 3 Xrotation Yrotation Zrotation
						End Site
						{
							OFFSET 0.000000 6.156120 0.000000
						}
					}
				}
			}
		}
	}
	JOINT Pouch
	{
		OFFSET 0.000000 4.394501 10.847300
		CHANNELS 3 Xrotation Yrotation Zrotation
		End Site
		{
			OFFSET 0.000000 21.880577 0.000000
		}
	}
	JOINT Bag
	{
		OFFSET -13.229000 4.813004 -0.593300
		CHANNELS 3 Xrotation Yrotation Zrotation
		End Site
		{
			OFFSET 0.000000 21.880577 0.000000
		}
	}
	JOINT OccupyGuyFacialAnim_Joint
	{
		OFFSET 1.000000 -70.206398 -1.655000
		CHANNELS 3 Xrotation Yrotation Zrotation
		End Site
		{
			OFFSET 0.000000 21.880577 0.000000
		}
	}
}
MOTION
Frames: 4
Frame Time: 0.033333
0.132072 69.669243 3.852576 -4.449432 0.445255 0.286231 0.000001 -0.000000 -0.000000 -6.271355 -4.638510 8.871590 21.133761 -1.738501 -2.761291 -8.710042 14.896200 -7.036229 0.000000 -0.000001 0.000000 0.000000 -0.000000 -0.000000 -0.445295 -4.983376 -8.784303 20.442317 0.294318 0.071749 -13.978747 -11.320720 8.088381 -0.000000 0.000000 0.000000 -0.000000 0.000000 -0.000000 1.303454 -0.003073 0.050879 -0.858008 -0.010351 0.124614 -0.858010 -0.003348 0.125028 4.737404 -0.013611 -0.123713 1.358996 0.222829 0.208384 0.000000 0.000000 0.000000 0.000000 0.000000 0.000000 0.000000 0.000000 0.000000 0.000000 0.000000 -0.000000 -0.000000 0.000000 -0.000000 0.000000 0.000000 -0.000000 -0.000000 0.000000 -0.000000 0.000000 0.000000 0.000000 0.000000 0.000000 0.000000 0.748824 9.285064 -12.966370 10.702408 -6.200996 -62.686923 -0.000006 -28.518179 0.000004 2.272357 -1.411590 -5.264530 5.693717 15.279388 -1.215905 5.501550 24.256300 0.285436 0.000000 0.000001 0.000002 1.050920 3.683598 -28.802382 3.082794 5.742054 -56.432430 -0.000001 0.000001 -0.000000 2.257056 5.236172 -38.665301 4.754761 6.545894 -71.959226 -0.000000 0.000000 0.000001 2.258257 5.237656 -38.681414 4.752918 6.545314 -71.943031 0.000001 -0.000001 -0.000000 4.804120 8.407720 -38.473571 4.766478 2.462646 -72.115582 0.000001 -0.000001 0.000003 -0.000000 0.000000 0.000000 1.079950 -8.472653 11.384869 3.100745 19.090770 61.719222 0.000001 22.995208 -0.000008 -2.067106 -4.814034 -0.074279 -0.565060 -14.106974 -5.681067 7.054652 -31.804882 0.225395 -0.000000 0.000001 0.000001 0.234299 -1.841205 11.818436 5.709750 -6.837479 79.708021 0.000002 0.000001 0.000000 1.548333 -4.598782 28.836020 6.991944 -6.948090 90.361388 0.000000 0.000001 -0.000001 1.548333 -4.598759 28.836024 6.991946 -6.948105 90.361388 -0.000001 -0.000001 0.000001 1.548334 -4.598779 28.836014 6.991953 -6.948097 90.361388 -0.000001 0.000001 -0.000003 0.000002 -0.000001 -0.000001 0.000000 -0.000000 -0.000000 0.000000 0.000000 0.000000 0.000000 -0.000000 -0.000000 0.000000 -0.000000 -0.000000 0.000000 -0.000000 -0.000000 0.000000 0.000000 0.000000 0.000000 -0.000000 -0.000000 0.000000 -0.000000 -0.000000 0.000000 -0.000000 -0.000000 0.000000 0.000000 0.000000 0.000001 -0.000000 -0.000000 0.000001 -0.000000 -0.000000 0.000001 -0.000000 -0.000000 
0.292737 69.642754 3.882680 -4.604336 0.655721 0.360884 0.000000 -0.000000 -0.000000 -6.284992 -5.057937 8.926155 21.499689 -1.118881 -3.433770 -8.978232 14.172819 -6.648550 0.000000 -0.000000 0.000000 0.000001 0.000000 -0.000000 -0.297179 -5.343344 -9.070846 20.497843 0.692252 0.077075 -14.084071 -11.244820 8.173591 0.000000 0.000000 0.000000 -0.000000 0.000000 0.000000 1.309579 0.021972 0.075516 -0.794848 0.038473 0.152183 -0.794831 0.047283 0.149643 4.814953 -0.045020 -0.172800 1.627782 -0.467633 0.284780 -0.000000 -0.000000 -0.000000 -0.000000 -0.000000 -0.000000 -0.000000 -0.000000 -0.000000 -0.000000 -0.000000 -0.000000 0.000000 -0.000000 0.000000 -0.000000 -0.000000 -0.000000 0.000000 -0.000000 0.000000 -0.000000 -0.000000 -0.000000 -0.000000 -0.000000 -0.000000 0.838158 9.062452 -13.263322 9.899340 -6.243973 -62.595890 -0.000009 -27.664032 -0.000011 2.471996 -1.522075 -5.442734 5.612513 15.265217 -1.168405 5.400298 24.197041 0.306192 -0.000000 0.000001 -0.000000 0.995575 3.585331 -28.611640 3.045837 5.717475 -56.062186 -0.000001 0.000001 -0.000002 2.239873 5.221437 -38.462643 4.686494 6.523410 -71.359310 0.000002 0.000001 -0.000001 2.241085 5.222918 -38.478724 4.684653 6.522799 -71.343136 -0.000000 -0.000000 -0.000000 4.775524 8.401941 -38.269109 4.698524 2.440349 -71.520536 -0.000001 0.000000 -0.000001 0.000000 -0.000003 0.000001 1.054329 -8.305202 11.259366 2.723247 17.481396 61.795959 0.000006 22.784750 -0.000021 -1.572737 -4.203673 -0.330669 -0.931934 -13.754977 -5.905835 7.037286 -31.760667 0.204961 -0.000001 -0.000001 -0.000000 0.215353 -1.737418 12.402104 5.607704 -6.818304 78.849596 0.000001 0.000001 -0.000003 1.426109 -4.363025 29.221626 6.898206 -6.948049 89.586448 0.000001 0.000000 -0.000001 1.426105 -4.363004 29.221643 6.898211 -6.948066 89.586448 -0.000001 -0.000003 0.000001 1.426106 -4.363020 29.221643 6.898212 -6.948066 89.586441 -0.000001 0.000001 0.000002 0.000001 -0.000003 0.000002 -0.000000 -0.000000 0.000000 -0.000000 -0.000000 0.000000 -0.000000 -0.000000 0.000000 -0.000000 -0.000000 0.000000 -0.000000 -0.000000 0.000000 -0.000000 -0.000000 0.000000 -0.000000 -0.000000 0.000000 -0.000000 -0.000000 0.000000 -0.000000 -0.000000 0.000000 -0.000000 -0.000000 0.000000 0.000000 -0.000000 -0.000000 0.000000 -0.000000 -0.000000 0.000000 -0.000000 -0.000000 
0.757652 69.578003 3.961234 -5.045189 1.268466 0.554705 -0.000000 0.000000 0.000000 -6.461023 -5.172076 8.576639 22.546121 -0.909599 -4.000867 -9.656677 13.101022 -5.928585 0.000000 0.000000 0.000000 0.000001 0.000000 -0.000001 0.295718 -5.866808 -9.752780 20.482755 0.780140 0.088945 -14.167439 -11.181192 8.664144 -0.000000 -0.000002 -0.000000 -0.000000 0.000001 -0.000001 1.328468 0.042480 0.101603 -0.660026 0.078308 0.175751 -0.660065 0.088550 0.170932 5.069579 -0.097209 -0.266044 2.219882 -1.452510 0.141774 0.000000 -0.000000 -0.000000 0.000000 -0.000000 -0.000000 0.000000 -0.000000 -0.000000 0.000000 -0.000000 -0.000000 0.000000 -0.000000 -0.000000 0.000000 -0.000000 -0.000000 0.000000 -0.000000 -0.000000 0.000000 -0.000000 -0.000000 0.000000 -0.000000 -0.000000 0.949228 8.451832 -13.607188 9.072265 -6.098173 -62.345905 0.000009 -26.496606 0.000020 2.657767 -1.038322 -5.929677 5.512737 15.246109 -1.111836 5.319564 24.151110 0.319105 0.000001 0.000001 0.000000 0.921246 3.448740 -28.741450 2.934642 5.641434 -54.938620 0.000000 0.000000 0.000002 2.227318 5.214438 -38.198373 4.533969 6.470299 -70.011372 -0.000001 0.000001 -0.000003 2.228514 5.215924 -38.214454 4.532140 6.469653 -69.995178 -0.000001 0.000002 -0.000001 4.748111 8.406552 -38.003033 4.546684 2.387682 -70.183418 -0.000001 -0.000003 0.000001 -0.000000 -0.000002 0.000002 1.055657 -7.890655 11.234498 2.306592 14.986379 61.700480 0.000003 22.552815 -0.000011 -0.920343 -3.438340 -0.311163 -1.366387 -13.225179 -6.035383 7.028234 -31.714768 0.195798 0.000001 -0.000001 -0.000000 0.201084 -1.664126 14.215574 5.371478 -6.767795 76.852694 -0.000002 0.000002 -0.000001 1.267703 -4.063247 29.945076 6.679731 -6.943059 87.779884 0.000000 -0.000000 -0.000001 1.267702 -4.063225 29.945079 6.679732 -6.943076 87.779890 -0.000001 -0.000001 0.000001 1.267702 -4.063247 29.945079 6.679735 -6.943073 87.779884 -0.000000 0.000003 -0.000001 0.000000 -0.000004 0.000002 0.000001 0.000000 -0.000000 0.000000 0.000000 0.000000 0.000001 0.000000 -0.000000 0.000001 0.000000 -0.000000 0.000001 0.000000 -0.000000 0.000000 0.000000 0.000000 0.000001 0.000000 -0.000000 0.000001 0.000000 -0.000000 0.000001 0.000000 -0.000000 0.000000 0.000000 0.000000 -0.000000 0.000000 0.000000 -0.000000 0.000000 0.000000 -0.000000 0.000000 0.000000 
1.485112 69.527893 4.048094 -5.703020 2.241456 0.804748 0.000000 -0.000000 -0.000000 -6.551656 -5.017025 7.974108 23.688857 -0.859343 -4.497060 -10.399141 11.589479 -4.955949 -0.000000 0.000000 0.000000 0.000000 -0.000001 0.000000 1.521982 -6.468174 -10.602097 19.846015 0.649436 0.106577 -13.996106 -10.956370 9.424797 -0.000000 -0.000000 -0.000000 -0.000000 -0.000000 -0.000000 1.377775 0.041025 0.133068 -0.407088 0.073260 0.219377 -0.407187 0.085530 0.214937 5.522449 -0.182899 -0.426275 3.080680 -2.891196 -0.146046 -0.000000 0.000000 0.000000 -0.000000 0.000000 0.000000 -0.000000 0.000000 0.000000 -0.000000 0.000000 0.000000 -0.000000 0.000000 0.000000 -0.000000 0.000000 0.000000 -0.000000 0.000000 0.000000 -0.000000 0.000000 0.000000 -0.000000 0.000000 0.000000 1.057909 7.393492 -13.919692 7.922475 -5.970364 -61.982785 -0.000002 -24.696023 -0.000015 2.990754 -0.004305 -6.424856 5.394281 15.221888 -1.046113 5.259219 24.117500 0.323857 -0.000000 0.000001 -0.000001 0.859655 3.338093 -29.734146 2.753110 5.510198 -53.070556 -0.000000 -0.000001 -0.000002 2.232315 5.220034 -38.219478 4.301458 6.381476 -67.934120 -0.000002 0.000000 -0.000001 2.233511 5.221526 -38.235559 4.299659 6.380769 -67.917933 -0.000001 0.000001 -0.000002 4.754330 8.411219 -38.024483 4.315166 2.299586 -68.122729 -0.000001 -0.000001 0.000001 0.000000 0.000001 -0.000001 1.098897 -7.197109 11.392681 1.879195 11.517102 61.293742 0.000009 22.284209 -0.000019 -0.060744 -2.650635 -0.235899 -1.873322 -12.546014 -6.173928 7.025871 -31.667004 0.195566 -0.000001 0.000000 -0.000001 0.181926 -1.642455 17.188219 4.995857 -6.669569 73.642881 0.000000 0.000001 0.000000 1.083450 -3.736961 30.874313 6.334536 -6.921207 84.920425 0.000001 0.000001 -0.000001 1.083452 -3.736940 30.874303 6.334542 -6.921209 84.920432 -0.000001 0.000000 0.000001 1.083454 -3.736957 30.874313 6.334538 -6.921217 84.920425 -0.000001 0.000001 -0.000001 0.000001 -0.000001 -0.000001 0.000000 -0.000000 -0.000000 -0.000000 0.000000 0.000000 0.000000 -0.000000 -0.000000 0.000000 -0.000000 -0.000000 0.000000 -0.000000 -0.000000 -0.000000 0.000000 0.000000 0.000000 -0.000000 -0.000000 0.000000 -0.000000 -0.000000 0.000000 -0.000000 -0.000000 -0.000000 0.000000 0.000000 0.000000 -0.000000 -0.000000 0.000000 -0.000000 -0.000000 0.000000 -0.000000 -0.000000 
